<svg width="476" height="53" viewBox="0 0 476 53" fill="none" xmlns="http://www.w3.org/2000/svg">
<path fill-rule="evenodd" clip-rule="evenodd" d="M71.8373 3.85211C77.0326 4.04302 82.6946 8.88002 82.3534 14.6771C82.0252 20.2556 76.6725 24.0581 71.1859 24.6375L61.9828 24.7623L61.9677 3.62944L71.8373 3.85208V3.85211ZM118.837 24.2319L119.322 22.4467C117.159 22.2694 118.105 22.2116 117.434 23.0084C115.823 24.8782 115.334 25.3391 112.154 25.3277C109.658 25.3186 106.916 25.4176 104.454 25.2548L104.368 4.0958C108.118 3.82447 112.463 4.04151 116.234 4.02371C123.694 3.98866 121.966 6.93173 125.527 6.98165L124.323 0.533053L95.9049 0.524106C96.0832 2.64931 98.0796 1.89825 99.1716 3.62146C100.213 5.26414 99.6611 19.8946 99.6611 22.3886C99.6611 31.0337 99.618 39.6895 99.6688 48.3332C91.508 48.3332 88.1337 44.3273 83.999 40.2198C81.9579 38.1924 75.1664 29.8587 73.7349 27.0513C82.7322 25.2016 91.2103 15.5413 83.2172 6.49304C77.5998 0.134049 69.9661 0.611257 62.2534 0.525973L53.3107 1.10099C54.221 2.72568 56.4064 2.23357 57.0173 4.46343L57.0159 47.6525C56.3004 50.3332 53.7236 49.321 53.3699 51.3839C54.6636 52.0191 64.2091 52.0227 65.5625 51.3839C65.2687 49.4698 63.0783 50.2936 62.0948 48.2286C61.3404 46.6445 61.6882 30.2379 61.9327 28.6951C71.0124 28.775 71.4639 31.7874 75.6664 36.6931C88.1564 51.2731 89.0546 52.1704 104.32 51.861C111.624 51.7131 119.398 52.1612 126.605 51.7752L127.838 45.4497C124.477 45.429 125.322 48.1389 121.888 47.9751L104.606 47.9657L104.591 28.9613C108.334 28.9613 111.7 29.0324 115.307 29.2342C117.718 29.8322 115.384 30.497 117.721 30.8772C118.658 29.3142 118.727 26.2557 118.837 24.2319H118.837ZM210.197 4.25289C211.624 1.40721 213.553 3.03051 213.896 0.511104L201.63 0.541903C201.815 2.78448 204.362 1.92365 205.189 4.36389C205.544 5.41073 205.36 9.96111 205.36 11.3778L205.296 47.9239C204.774 50.8894 202.11 49.7415 201.581 51.751C203.109 52.8209 211.269 52.1359 213.782 52.1374C213.68 49.8391 211.694 51.0598 210.133 48.296L210.047 22.345C213.337 25.142 227.075 46.5031 231.826 50.463C235.446 53.4799 241.464 53.3927 243.281 48.9756C234.037 49.0677 236.576 51.2316 226.85 38.1239C224.912 35.5126 215.564 23.5735 214.895 21.6547C217.93 17.786 221.919 14.0726 225.295 10.2693C227.846 7.395 230.362 4.63554 234.154 2.84327C235.797 2.06734 237.292 2.24399 237.437 0.734067L224.238 0.517154C224.446 2.65227 225.216 1.08499 227.055 2.57693C226.996 4.94498 210.388 21.1664 210.076 21.339L210.197 4.25292L210.197 4.25289ZM371.177 -5.77044e-05H367.956C365.573 1.20671 362.373 1.13928 359.731 5.92251C351.661 20.5336 379.762 25.1577 380.275 38.5365C380.603 47.0945 369.426 50.4756 363.033 47.7552C358.413 45.7889 358.947 43.5759 355.869 41.0983L355.772 47.4785C359.551 48.6508 362.413 51.5532 367.172 52.1087C381.922 53.8305 389.766 37.3173 379.463 27.1222C376.396 24.0878 363.931 15.3649 362.824 12.3041C361.157 7.68877 365.561 3.89517 369.361 3.51387C374.869 2.96122 377.385 6.55548 380.223 8.37877L380.174 3.59243C378.483 3.02958 372.613 0.733005 371.177 -5.77044e-05ZM338.041 -5.77044e-05H334.233C330.753 2.46879 328.769 1.71504 326.543 6.21975C319.209 21.0668 346.492 24.8351 347.2 38.5353C347.616 46.5934 336.896 50.5386 330.177 47.8452C325.725 46.0605 325.683 43.5252 322.857 41.0253L322.621 47.4566C326.14 48.5052 336.583 56.8931 345.932 48.8275C353.139 42.6103 352.602 33.2064 346.56 27.2646C343.3 24.0587 331.367 15.6181 329.955 12.8096C327.698 8.32187 332.159 4.22054 335.534 3.62229C341.692 2.53081 343.809 6.48796 347.228 8.30398L347.098 3.66558C344.01 2.07439 340.754 1.28588 338.041 -5.77044e-05ZM388.398 1.10099C389.559 3.7516 392.204 1.11785 392.204 6.9735L392.18 42.9424C392.183 44.574 392.542 47.1188 391.734 48.4715C390.621 50.3327 388.728 49.5306 388.451 51.3839C391.772 52.1802 412.572 51.6856 418.785 51.6062L420.209 45.2141C417.269 45.3162 417.239 48.1723 412.185 48.1723L396.883 48.1491L396.877 28.5958C414.541 28.1628 405.987 30.4364 410.356 30.8307L411.532 22.5218C408.438 22.5893 409.949 25.0409 405.871 25.2555C403.182 25.397 399.76 25.2821 397.023 25.23C396.663 21.8479 396.771 8.10712 396.949 4.09912L409.952 4.08914C415.702 4.08914 414.592 6.90322 417.898 7.06049L416.77 0.729369C413.827 0.349739 400.34 0.609005 395.433 0.561342C393.438 0.541871 389.571 0.0160659 388.399 1.10099H388.398ZM29.0484 -5.77044e-05H24.3669C22.7039 0.750996 19.9835 0.903125 18.0332 1.53391C-4.5335 8.83258 -6.70689 40.4543 15.9857 50.0308C26.5987 54.5095 31.5052 51.4445 41.0341 49.0746C42.3756 49.9564 43.5226 51.1058 45.8659 51.4437C44.138 45.5393 44.5213 43.1895 44.5213 36.7028C44.5213 34.7738 44.2889 30.3942 44.5986 28.7477C45.202 25.5408 48.2502 27.3181 48.0464 24.6657L36.2897 24.9579C36.6733 27.6434 39.9907 24.9403 39.9669 30.812C39.9545 33.8767 39.9425 36.9409 39.9494 40.0063C39.9586 44.1068 40.5789 45.201 37.2114 46.8938C35.0848 47.963 32.5683 48.6573 29.8819 48.9105C-3.4076 52.0486 -3.19349 1.57153 28.3924 3.31324C36.9404 3.78466 37.8729 6.25183 41.7438 8.51761L41.6645 2.73968L29.0483 6.66147e-06L29.0484 -5.77044e-05ZM164.302 24.6372C164.272 27.5088 167.945 24.9242 167.96 30.4353C167.968 33.6223 167.928 36.8169 167.939 40.0069C167.957 44.6792 168.462 44.7046 164.953 46.5748C152.566 53.1769 138.329 46.6131 134.195 35.1423C125.338 10.5663 153.055 -6.21098 169.677 8.60248L169.646 2.73643C158.548 0.0885097 149.78 -1.66134 140.231 4.19422C123.145 14.6717 124.158 39.362 140.946 48.6779C151.63 54.6068 158.563 52.4032 169.467 48.9716C170.659 49.8897 171.652 50.8496 173.707 51.4507C172.014 46.0435 172.484 42.5909 172.484 36.7028C172.484 34.5932 172.26 30.9361 172.501 29.0106C172.894 25.8598 175.468 27.152 176.153 24.9578C174.238 23.924 167.036 24.6372 164.302 24.6372L164.302 24.6372ZM428.744 -5.77044e-05H423.008C423.975 2.56473 429.584 6.51438 430.246 8.59214L430.329 47.6515C429.695 50.8132 426.874 48.9591 426.676 51.782C429.335 51.773 436.594 52.4373 438.277 51.3839C437.35 48.5036 434.411 51.7806 434.469 44.4132C434.529 36.6491 433.984 18.2332 434.584 12.9227C439.461 17.6317 453.635 35.1404 460.033 42.0109L468.393 51.7567L472.14 51.7899C472.521 46.5283 471.903 5.6205 472.372 4.24719C473.063 2.22871 475.134 2.83632 476 1.10092C474.996 0.488351 465.644 0.0300333 464.339 1.10092C465.625 4.28172 468.144 -0.472375 468.125 9.17553C468.109 17.0561 468.63 38.7103 468.002 43.6146C464.772 40.6599 452.566 25.8248 448.678 21.6416L431.75 2.36063C430.442 0.801072 430.176 1.11112 428.744 -0.00012207V-5.77044e-05ZM294.675 8.85099L301.219 25.0541L287.647 24.9897L294.675 8.85099ZM255.46 3.67295C256.572 1.94588 258.496 2.54465 258.698 0.526809L246.564 0.734067C246.643 2.73643 249.437 1.78436 250.171 4.48596L250.15 47.9754C249.608 49.8456 247.204 49.6365 246.475 51.3839C247.628 52.1783 248.759 51.8386 250.992 51.8259C256.499 51.7945 280.735 52.54 282.222 51.3839C281.355 49.2628 277.323 50.5964 278.659 46.7654C279.487 44.3907 286.112 28.1004 287.103 27.8746L301.994 27.8766C303.175 28.1502 309.962 45.2032 310.515 47.0432C311.646 50.8002 307.818 49.3629 306.818 51.384C307.851 52.1255 319.835 52.2328 320.875 51.384C320.245 49.929 317.6 50.8927 315.769 46.9725L296.171 0.511136H294.267C292.465 3.21315 288.98 12.158 287.451 15.7577C285.284 20.8623 283.084 25.799 280.897 30.9537C272.666 50.3533 274.894 48.8796 265.512 48.8777C262.87 48.877 257.138 49.1941 255.245 48.3345C254.378 45.3252 254.942 27.2804 254.942 22.7557C254.942 20.2476 254.404 5.31319 255.46 3.67301L255.46 3.67295Z" fill="white"/>
</svg>
